<?xml version="1.0" encoding="iso-8859-1"?>
<!-- Generator: Adobe Illustrator 19.0.0, SVG Export Plug-In . SVG Version: 6.00 Build 0)  -->
<svg version="1.1" id="Layer_1" xmlns="http://www.w3.org/2000/svg" xmlns:xlink="http://www.w3.org/1999/xlink" x="0px" y="0px"
	 viewBox="0 0 504.123 504.123" style="enable-background:new 0 0 504.123 504.123;" xml:space="preserve">
<circle style="fill:#90DFAA;" cx="252.062" cy="252.062" r="252.062"/>
<rect x="94.523" y="299.323" style="fill:#324A5E;" width="78.769" height="78.769"/>
<rect x="106.338" y="311.138" style="fill:#F1543F;" width="55.138" height="55.138"/>
<rect x="212.677" y="299.323" style="fill:#324A5E;" width="78.769" height="78.769"/>
<rect x="224.492" y="311.138" style="fill:#FFFFFF;" width="55.138" height="55.138"/>
<rect x="330.831" y="299.323" style="fill:#324A5E;" width="78.769" height="78.769"/>
<rect x="342.646" y="311.138" style="fill:#2C9984;" width="55.138" height="55.138"/>
<polygon style="fill:#324A5E;" points="259.938,264.665 259.938,174.868 244.185,174.868 244.185,264.665 126.031,264.665 
	126.031,303.262 141.785,303.262 141.785,280.418 244.185,280.418 244.185,303.262 259.938,303.262 259.938,280.418 
	362.338,280.418 362.338,303.262 378.092,303.262 378.092,264.665 "/>
<path style="fill:#FFD05B;" d="M252.062,63.015L252.062,63.015c-46.08,0-83.495,37.415-83.495,83.495s37.415,83.495,83.495,83.495
	l0,0c46.08,0,83.495-37.415,83.495-83.495S298.142,63.015,252.062,63.015z"/>
<g>
	<path style="fill:#F9B54C;" d="M252.062,218.191c-39.778,0-71.68-32.295-71.68-71.68c0-39.778,32.295-71.68,71.68-71.68
		s71.68,32.295,71.68,71.68C323.742,186.289,291.84,218.191,252.062,218.191z M252.062,82.314
		c-35.446,0-63.803,28.751-63.803,63.803s28.357,64.197,63.803,64.197s63.803-28.751,63.803-63.803S287.508,82.314,252.062,82.314z"
		/>
	<path style="fill:#F9B54C;" d="M249.305,200.074v-9.452c-11.815-1.182-22.449-5.908-31.902-14.178l9.452-11.422
		c7.089,6.302,14.572,10.24,22.449,11.422v-25.206c-9.846-2.363-16.935-5.514-21.268-9.058c-4.726-3.938-6.695-9.452-6.695-16.935
		c0-7.483,2.757-13.391,7.877-18.511c5.12-4.726,11.815-7.483,20.48-7.877v-6.302h8.271v6.695
		c9.452,0.788,18.511,3.938,26.782,9.846l-8.271,11.815c-5.514-3.938-11.815-6.695-18.511-7.483v24.418h0.394
		c9.846,2.363,17.329,5.514,22.055,9.452s7.089,9.846,7.089,17.329c0,7.483-2.757,13.785-7.877,18.511
		c-5.514,4.726-12.603,7.483-21.268,7.877v9.452h-9.058V200.074z M240.246,116.578c-2.363,1.969-3.151,4.332-3.151,7.089
		c0,2.757,0.788,5.12,2.757,6.695c1.575,1.575,5.12,3.151,9.846,4.726V112.64C245.366,113.428,242.215,114.609,240.246,116.578z
		 M267.422,173.292c2.363-1.969,3.545-4.332,3.545-7.483c0-3.151-0.788-5.514-2.757-7.089c-1.969-1.575-5.514-3.545-10.634-5.12
		v23.237C261.514,176.443,265.058,175.262,267.422,173.292z"/>
</g>
<g>
</g>
<g>
</g>
<g>
</g>
<g>
</g>
<g>
</g>
<g>
</g>
<g>
</g>
<g>
</g>
<g>
</g>
<g>
</g>
<g>
</g>
<g>
</g>
<g>
</g>
<g>
</g>
<g>
</g>
</svg>
