<?xml version="1.0" encoding="UTF-8" standalone="no"?>
<svg
   xmlns:dc="http://purl.org/dc/elements/1.1/"
   xmlns:cc="http://creativecommons.org/ns#"
   xmlns:rdf="http://www.w3.org/1999/02/22-rdf-syntax-ns#"
   xmlns:svg="http://www.w3.org/2000/svg"
   xmlns="http://www.w3.org/2000/svg"
   xmlns:sodipodi="http://sodipodi.sourceforge.net/DTD/sodipodi-0.dtd"
   xmlns:inkscape="http://www.inkscape.org/namespaces/inkscape"
   version="1.1"
   x="0px"
   y="0px"
   viewBox="0 0 100 125"
   style="enable-background:new 0 0 100 100;"
   xml:space="preserve"
   id="svg2"
   inkscape:version="0.91 r13725"
   sodipodi:docname="calculator.svg"><metadata
     id="metadata36"><rdf:RDF><cc:Work
         rdf:about=""><dc:format>image/svg+xml</dc:format><dc:type
           rdf:resource="http://purl.org/dc/dcmitype/StillImage" /><dc:title></dc:title></cc:Work></rdf:RDF></metadata><defs
     id="defs34" /><sodipodi:namedview
     pagecolor="#ffffff"
     bordercolor="#666666"
     borderopacity="1"
     objecttolerance="10"
     gridtolerance="10"
     guidetolerance="10"
     inkscape:pageopacity="0"
     inkscape:pageshadow="2"
     inkscape:window-width="640"
     inkscape:window-height="480"
     id="namedview32"
     showgrid="false"
     inkscape:zoom="1.888"
     inkscape:cx="50"
     inkscape:cy="62.5"
     inkscape:window-x="0"
     inkscape:window-y="0"
     inkscape:window-maximized="0"
     inkscape:current-layer="svg2" /><g
     id="g4"
     style="fill:#ffffff"><path
       d="M14.5,75c0,7.7,6.3,14,14,14h43c7.7,0,14-6.3,14-14V25c0-7.7-6.3-14-14-14h-43c-7.7,0-14,6.3-14,14V75z M18.5,25   c0-5.5,4.5-10,10-10h43c5.5,0,10,4.5,10,10v50c0,5.5-4.5,10-10,10h-43c-5.5,0-10-4.5-10-10V25z"
       id="path6"
       style="fill:#ffffff" /><path
       d="M31.5,34.5h37c4.1,0,7.5-3.4,7.5-7.5s-3.4-7.5-7.5-7.5h-37c-4.1,0-7.5,3.4-7.5,7.5S27.4,34.5,31.5,34.5z M31.5,23.5h37   c1.9,0,3.5,1.6,3.5,3.5s-1.6,3.5-3.5,3.5h-37c-1.9,0-3.5-1.6-3.5-3.5S29.6,23.5,31.5,23.5z"
       id="path8"
       style="fill:#ffffff" /><path
       d="M30,50.5h2c3.3,0,6-2.7,6-6s-2.7-6-6-6h-2c-3.3,0-6,2.7-6,6S26.7,50.5,30,50.5z M30,42.5h2c1.1,0,2,0.9,2,2s-0.9,2-2,2h-2   c-1.1,0-2-0.9-2-2S28.9,42.5,30,42.5z"
       id="path10"
       style="fill:#ffffff" /><path
       d="M30,65.5h2c3.3,0,6-2.7,6-6s-2.7-6-6-6h-2c-3.3,0-6,2.7-6,6S26.7,65.5,30,65.5z M30,57.5h2c1.1,0,2,0.9,2,2s-0.9,2-2,2h-2   c-1.1,0-2-0.9-2-2S28.9,57.5,30,57.5z"
       id="path12"
       style="fill:#ffffff" /><path
       d="M30,80.5h2c3.3,0,6-2.7,6-6s-2.7-6-6-6h-2c-3.3,0-6,2.7-6,6S26.7,80.5,30,80.5z M30,72.5h2c1.1,0,2,0.9,2,2s-0.9,2-2,2h-2   c-1.1,0-2-0.9-2-2S28.9,72.5,30,72.5z"
       id="path14"
       style="fill:#ffffff" /><path
       d="M51,38.5h-2c-3.3,0-6,2.7-6,6s2.7,6,6,6h2c3.3,0,6-2.7,6-6S54.3,38.5,51,38.5z M51,46.5h-2c-1.1,0-2-0.9-2-2s0.9-2,2-2h2   c1.1,0,2,0.9,2,2S52.1,46.5,51,46.5z"
       id="path16"
       style="fill:#ffffff" /><path
       d="M51,53.5h-2c-3.3,0-6,2.7-6,6s2.7,6,6,6h2c3.3,0,6-2.7,6-6S54.3,53.5,51,53.5z M51,61.5h-2c-1.1,0-2-0.9-2-2s0.9-2,2-2h2   c1.1,0,2,0.9,2,2S52.1,61.5,51,61.5z"
       id="path18"
       style="fill:#ffffff" /><path
       d="M51,68.5h-2c-3.3,0-6,2.7-6,6s2.7,6,6,6h2c3.3,0,6-2.7,6-6S54.3,68.5,51,68.5z M51,76.5h-2c-1.1,0-2-0.9-2-2s0.9-2,2-2h2   c1.1,0,2,0.9,2,2S52.1,76.5,51,76.5z"
       id="path20"
       style="fill:#ffffff" /><path
       d="M70,38.5h-2c-3.3,0-6,2.7-6,6s2.7,6,6,6h2c3.3,0,6-2.7,6-6S73.3,38.5,70,38.5z M70,46.5h-2c-1.1,0-2-0.9-2-2s0.9-2,2-2h2   c1.1,0,2,0.9,2,2S71.1,46.5,70,46.5z"
       id="path22"
       style="fill:#ffffff" /><path
       d="M70,53.5h-2c-3.3,0-6,2.7-6,6s2.7,6,6,6h2c3.3,0,6-2.7,6-6S73.3,53.5,70,53.5z M70,61.5h-2c-1.1,0-2-0.9-2-2s0.9-2,2-2h2   c1.1,0,2,0.9,2,2S71.1,61.5,70,61.5z"
       id="path24"
       style="fill:#ffffff" /><path
       d="M70,68.5h-2c-3.3,0-6,2.7-6,6s2.7,6,6,6h2c3.3,0,6-2.7,6-6S73.3,68.5,70,68.5z M70,76.5h-2c-1.1,0-2-0.9-2-2s0.9-2,2-2h2   c1.1,0,2,0.9,2,2S71.1,76.5,70,76.5z"
       id="path26"
       style="fill:#ffffff" /></g></svg>