<?xml version="1.0" encoding="UTF-8" standalone="no"?>
<svg
   xmlns:dc="http://purl.org/dc/elements/1.1/"
   xmlns:cc="http://creativecommons.org/ns#"
   xmlns:rdf="http://www.w3.org/1999/02/22-rdf-syntax-ns#"
   xmlns:svg="http://www.w3.org/2000/svg"
   xmlns="http://www.w3.org/2000/svg"
   xmlns:sodipodi="http://sodipodi.sourceforge.net/DTD/sodipodi-0.dtd"
   xmlns:inkscape="http://www.inkscape.org/namespaces/inkscape"
   version="1.1"
   x="0px"
   y="0px"
   viewBox="0 0 100 125"
   enable-background="new 0 0 100 100"
   xml:space="preserve"
   id="svg2"
   inkscape:version="0.91 r13725"
   sodipodi:docname="cart.svg"><metadata
     id="metadata14"><rdf:RDF><cc:Work
         rdf:about=""><dc:format>image/svg+xml</dc:format><dc:type
           rdf:resource="http://purl.org/dc/dcmitype/StillImage" /><dc:title></dc:title></cc:Work></rdf:RDF></metadata><defs
     id="defs12" /><sodipodi:namedview
     pagecolor="#ffffff"
     bordercolor="#666666"
     borderopacity="1"
     objecttolerance="10"
     gridtolerance="10"
     guidetolerance="10"
     inkscape:pageopacity="0"
     inkscape:pageshadow="2"
     inkscape:window-width="640"
     inkscape:window-height="480"
     id="namedview10"
     showgrid="false"
     inkscape:zoom="1.888"
     inkscape:cx="50"
     inkscape:cy="62.5"
     inkscape:window-x="0"
     inkscape:window-y="0"
     inkscape:window-maximized="0"
     inkscape:current-layer="svg2" /><path
     d="M96.965,33.88c-0.375-0.528-0.982-0.842-1.631-0.842H22.349l-5.394-19.263c-0.241-0.864-1.029-1.461-1.926-1.461H4.667  c-1.104,0-2,0.896-2,2s0.896,2,2,2h8.846l12.602,45.007c-4.624,0.073-8.365,3.852-8.365,8.493c0,4.687,3.813,8.5,8.5,8.5h2.563  c-0.331,0.782-0.514,1.641-0.514,2.542c0,3.607,2.935,6.542,6.541,6.542c3.607,0,6.542-2.935,6.542-6.542  c0-0.901-0.184-1.76-0.514-2.542h21.178c-0.414,0.858-0.653,1.816-0.653,2.832c0,3.607,2.935,6.542,6.541,6.542  s6.541-2.935,6.541-6.542c0-1.015-0.239-1.973-0.653-2.832h3.513c1.104,0,2-0.896,2-2s-0.896-2-2-2H26.249  c-2.481,0-4.5-2.019-4.5-4.5s2.019-4.5,4.5-4.5h2.496c0.001,0,0.002,0,0.003,0s0.002,0,0.004,0H85.49c1.002,0,1.824-0.74,1.97-1.701  l9.762-27.915C97.436,35.086,97.34,34.409,96.965,33.88z M67.933,83.686c-1.401,0-2.541-1.14-2.541-2.542s1.14-2.542,2.541-2.542  s2.541,1.14,2.541,2.542S69.334,83.686,67.933,83.686z M37.381,80.854c0,1.401-1.141,2.542-2.542,2.542s-2.541-1.14-2.541-2.542  s1.14-2.542,2.541-2.542S37.381,79.453,37.381,80.854z M90.962,41.48H77.199l0.631-4.443h14.686L90.962,41.48z M87.523,51.314  H75.802l0.829-5.833h12.933L87.523,51.314z M84.027,61.314h-9.646l0.852-6h10.893L84.027,61.314z M60.094,61.314v-6h11.099l-0.853,6  H60.094z M45.848,61.314l-0.853-6h11.099v6H45.848z M30.266,61.314l-1.68-6h12.369l0.852,6H30.266z M60.094,41.48v-4.443h13.695  l-0.631,4.443H60.094z M72.59,45.48l-0.829,5.833H60.094V45.48H72.59z M56.094,41.48H43.029l-0.631-4.443h13.695V41.48z   M56.094,45.48v5.833H44.427l-0.829-5.833H56.094z M40.386,51.314h-12.92l-1.634-5.833h13.725L40.386,51.314z M38.357,37.038  l0.631,4.443H24.713l-1.244-4.443H38.357z"
     id="path4"
     style="fill:#ffffff" /></svg>