<?xml version="1.0" encoding="UTF-8" standalone="no"?>
<svg
   xmlns:dc="http://purl.org/dc/elements/1.1/"
   xmlns:cc="http://creativecommons.org/ns#"
   xmlns:rdf="http://www.w3.org/1999/02/22-rdf-syntax-ns#"
   xmlns:svg="http://www.w3.org/2000/svg"
   xmlns="http://www.w3.org/2000/svg"
   xmlns:sodipodi="http://sodipodi.sourceforge.net/DTD/sodipodi-0.dtd"
   xmlns:inkscape="http://www.inkscape.org/namespaces/inkscape"
   version="1.1"
   x="0px"
   y="0px"
   viewBox="0 0 100 125"
   id="svg2"
   inkscape:version="0.91 r13725"
   sodipodi:docname="dashboard.svg">
  <metadata
     id="metadata16">
    <rdf:RDF>
      <cc:Work
         rdf:about="">
        <dc:format>image/svg+xml</dc:format>
        <dc:type
           rdf:resource="http://purl.org/dc/dcmitype/StillImage" />
        <dc:title></dc:title>
      </cc:Work>
    </rdf:RDF>
  </metadata>
  <defs
     id="defs14" />
  <sodipodi:namedview
     pagecolor="#ffffff"
     bordercolor="#666666"
     borderopacity="1"
     objecttolerance="10"
     gridtolerance="10"
     guidetolerance="10"
     inkscape:pageopacity="0"
     inkscape:pageshadow="2"
     inkscape:window-width="640"
     inkscape:window-height="480"
     id="namedview12"
     showgrid="false"
     inkscape:zoom="1.888"
     inkscape:cx="50"
     inkscape:cy="62.5"
     inkscape:window-x="0"
     inkscape:window-y="0"
     inkscape:window-maximized="0"
     inkscape:current-layer="svg2" />
  <g
     transform="translate(0,-952.36218)"
     id="g4"
     style="fill:#ffffff">
    <path
       style="font-size:medium;font-style:normal;font-variant:normal;font-weight:normal;font-stretch:normal;text-indent:0;text-align:start;text-decoration:none;line-height:normal;letter-spacing:normal;word-spacing:normal;text-transform:none;direction:ltr;block-progression:tb;writing-mode:lr-tb;text-anchor:start;baseline-shift:baseline;opacity:1;color:#000000;fill:#ffffff;fill-opacity:1;stroke:none;stroke-width:4;marker:none;visibility:visible;display:inline;overflow:visible;enable-background:accumulate;font-family:Sans;-inkscape-font-specification:Sans"
       d="M 50 28 C 30.141437 28 14 44.14143 14 64 A 2.0002 2.0002 0 0 0 16 66 L 42.25 66 C 43.141132 69.443996 46.290525 72 50 72 C 53.695485 72 56.734025 69.433347 57.625 66 L 84 66 A 2.0002 2.0002 0 0 0 86 64 C 86 44.14143 69.85856 28 50 28 z M 48 32.09375 L 48 37 A 2.0002 2.0002 0 1 0 52 37 L 52 32.09375 C 62.27242 32.725024 71.175951 38.183603 76.53125 46.25 L 73 48.25 A 2.0020348 2.0020348 0 1 0 75 51.71875 L 78.53125 49.71875 C 80.386167 53.456751 81.537819 57.604233 81.8125 62 L 61.28125 62 L 69.375 54.4375 A 2.0002 2.0002 0 0 0 67.78125 51 A 2.0002 2.0002 0 0 0 67.3125 51.125 L 52.625 56.625 C 51.777187 56.326 50.933896 56 50 56 C 46.304148 56 43.185596 58.57508 42.28125 62 L 18.1875 62 C 18.465607 57.54941 19.66668 53.367806 21.5625 49.59375 L 25.03125 51.5625 A 2.0002 2.0002 0 1 0 27 48.09375 L 23.53125 46.125 C 28.894627 38.121504 37.776409 32.722023 48 32.09375 z M 59.25 58.40625 L 54.625 62.71875 A 2.0002 2.0002 0 0 0 54 64.125 C 53.93427 66.2921 52.191988 68 50 68 C 47.767176 68 46 66.2328 46 64 C 46 61.7672 47.767176 60 50 60 C 50.686558 60 51.331071 60.1501 51.875 60.4375 A 2.0002 2.0002 0 0 0 53.5 60.5625 L 59.25 58.40625 z M 50 62 C 48.895431 62 48 62.895431 48 64 C 48 65.104569 48.895431 66 50 66 C 51.104569 66 52 65.104569 52 64 C 52 62.895431 51.104569 62 50 62 z "
       transform="translate(0,952.36218)"
       id="path6" />
  </g>
</svg>
